<svg width="42" height="30" viewBox="0 0 42 30" fill="none" xmlns="http://www.w3.org/2000/svg">
<path d="M40.673 9.90625C40.9888 9.66406 41.4585 9.89062 41.4585 10.2734V26.25C41.4585 28.3203 39.7175 30 37.5717 30H3.88673C1.74093 30 0 28.3203 0 26.25V10.2812C0 9.89062 0.461549 9.67188 0.785443 9.91406C2.59925 11.2734 5.00417 13 13.2635 18.7891C14.972 19.9922 17.8547 22.5234 20.7292 22.5078C23.62 22.5312 26.5593 19.9453 28.2031 18.7891C36.4624 13 38.8592 11.2656 40.673 9.90625ZM20.7292 20C22.6078 20.0312 25.3123 17.7188 26.6727 16.7656C37.4179 9.24219 38.2357 8.58594 40.7135 6.71094C41.1831 6.35937 41.4585 5.8125 41.4585 5.23438V3.75C41.4585 1.67969 39.7175 0 37.5717 0H3.88673C1.74093 0 0 1.67969 0 3.75V5.23438C0 5.8125 0.27531 6.35156 0.744957 6.71094C3.22275 8.57812 4.04058 9.24219 14.7858 16.7656C16.1461 17.7188 18.8506 20.0312 20.7292 20Z" fill="#71C669"/>
</svg>
