<svg width="48" height="48" viewBox="0 0 48 48" fill="none" xmlns="http://www.w3.org/2000/svg">
<path d="M47.71 22.7833C43.1908 13.9658 34.2442 8 24 8C13.7558 8 4.80667 13.97 0.29 22.7842C0.0993685 23.1613 4.57764e-05 23.5779 4.57764e-05 24.0004C4.57764e-05 24.423 0.0993685 24.8396 0.29 25.2167C4.80917 34.0342 13.7558 40 24 40C34.2442 40 43.1933 34.03 47.71 25.2158C47.9006 24.8387 48 24.4221 48 23.9996C48 23.577 47.9006 23.1604 47.71 22.7833ZM24 36C21.6266 36 19.3065 35.2962 17.3332 33.9776C15.3598 32.6591 13.8217 30.7849 12.9134 28.5922C12.0052 26.3995 11.7676 23.9867 12.2306 21.6589C12.6936 19.3311 13.8365 17.1929 15.5147 15.5147C17.1929 13.8365 19.3311 12.6936 21.6589 12.2306C23.9867 11.7676 26.3995 12.0052 28.5922 12.9134C30.7849 13.8217 32.6591 15.3598 33.9776 17.3332C35.2962 19.3065 36 21.6266 36 24C36.0008 25.5761 35.6909 27.1369 35.0881 28.5931C34.4853 30.0494 33.6014 31.3725 32.487 32.487C31.3725 33.6014 30.0494 34.4853 28.5931 35.0881C27.1369 35.6909 25.5761 36.0008 24 36ZM24 16C23.2859 16.01 22.5765 16.1162 21.8908 16.3158C22.456 17.0839 22.7272 18.0291 22.6553 18.98C22.5834 19.9308 22.173 20.8245 21.4987 21.4987C20.8245 22.173 19.9308 22.5834 18.98 22.6553C18.0291 22.7272 17.0839 22.456 16.3158 21.8908C15.8785 23.5022 15.9574 25.2101 16.5416 26.7742C17.1257 28.3383 18.1856 29.6798 19.5722 30.61C20.9587 31.5401 22.602 32.012 24.2708 31.9593C25.9396 31.9066 27.5498 31.3319 28.8749 30.3161C30.2 29.3003 31.1731 27.8945 31.6574 26.2967C32.1416 24.6988 32.1126 22.9893 31.5744 21.4088C31.0362 19.8283 30.0159 18.4564 28.6572 17.4861C27.2984 16.5158 25.6696 15.9961 24 16Z" fill="#29BE1C" fill-opacity="0.31"/>
</svg>
