<svg width="62" height="62" viewBox="0 0 62 62" fill="none" xmlns="http://www.w3.org/2000/svg">
<path d="M31.0137 15.2773C22.3184 15.2773 15.3047 22.291 15.3047 30.9863C15.3047 39.6816 22.3184 46.6953 31.0137 46.6953C39.709 46.6953 46.7227 39.6816 46.7227 30.9863C46.7227 22.291 39.709 15.2773 31.0137 15.2773ZM31.0137 41.1992C25.3945 41.1992 20.8008 36.6191 20.8008 30.9863C20.8008 25.3535 25.3809 20.7734 31.0137 20.7734C36.6465 20.7734 41.2266 25.3535 41.2266 30.9863C41.2266 36.6191 36.6328 41.1992 31.0137 41.1992ZM51.0293 14.6348C51.0293 16.6719 49.3887 18.2988 47.3652 18.2988C45.3281 18.2988 43.7012 16.6582 43.7012 14.6348C43.7012 12.6113 45.3418 10.9707 47.3652 10.9707C49.3887 10.9707 51.0293 12.6113 51.0293 14.6348ZM61.4336 18.3535C61.2012 13.4453 60.0801 9.09766 56.4844 5.51562C52.9023 1.93359 48.5547 0.8125 43.6465 0.566406C38.5879 0.279297 23.4258 0.279297 18.3672 0.566406C13.4727 0.798828 9.125 1.91992 5.5293 5.50195C1.93359 9.08398 0.826172 13.4316 0.580078 18.3398C0.292969 23.3984 0.292969 38.5605 0.580078 43.6191C0.8125 48.5273 1.93359 52.875 5.5293 56.457C9.125 60.0391 13.459 61.1602 18.3672 61.4062C23.4258 61.6934 38.5879 61.6934 43.6465 61.4062C48.5547 61.1738 52.9023 60.0527 56.4844 56.457C60.0664 52.875 61.1875 48.5273 61.4336 43.6191C61.7207 38.5605 61.7207 23.4121 61.4336 18.3535ZM54.8984 49.0469C53.832 51.7266 51.7676 53.791 49.0742 54.8711C45.041 56.4707 35.4707 56.1016 31.0137 56.1016C26.5566 56.1016 16.9727 56.457 12.9531 54.8711C10.2734 53.8047 8.20898 51.7402 7.12891 49.0469C5.5293 45.0137 5.89844 35.4434 5.89844 30.9863C5.89844 26.5293 5.54297 16.9453 7.12891 12.9258C8.19531 10.2461 10.2598 8.18164 12.9531 7.10156C16.9863 5.50195 26.5566 5.87109 31.0137 5.87109C35.4707 5.87109 45.0547 5.51562 49.0742 7.10156C51.7539 8.16797 53.8184 10.2324 54.8984 12.9258C56.498 16.959 56.1289 26.5293 56.1289 30.9863C56.1289 35.4434 56.498 45.0273 54.8984 49.0469Z" fill="#29BE1C" fill-opacity="0.31"/>
</svg>
