<svg width="70" height="70" viewBox="0 0 70 70" fill="none" xmlns="http://www.w3.org/2000/svg">
<rect width="70" height="70" fill="white"/>
<path d="M18.0852 61.25H5.38672V20.3574H18.0852V61.25ZM11.7291 14.7793C7.66855 14.7793 4.375 11.416 4.375 7.35544C4.375 5.40501 5.1498 3.53447 6.52897 2.15531C7.90813 0.776148 9.77867 0.00134277 11.7291 0.00134277C13.6795 0.00134277 15.5501 0.776148 16.9292 2.15531C18.3084 3.53447 19.0832 5.40501 19.0832 7.35544C19.0832 11.416 15.7883 14.7793 11.7291 14.7793ZM65.6113 61.25H52.9402V41.3437C52.9402 36.5996 52.8445 30.5156 46.3381 30.5156C39.7359 30.5156 38.7242 35.6699 38.7242 41.0019V61.25H26.0395V20.3574H38.2184V25.9355H38.3961C40.0914 22.7226 44.2326 19.332 50.4109 19.332C63.2625 19.332 65.625 27.7949 65.625 38.7871V61.25H65.6113Z" fill="#29BE1C" fill-opacity="0.17"/>
</svg>
