<svg width="42" height="39" viewBox="0 0 42 39" fill="none" xmlns="http://www.w3.org/2000/svg">
<path d="M37.0165 0H4.44198C3.26389 0 2.13406 0.440241 1.30103 1.22388C0.467993 2.00751 0 3.07035 0 4.17857L0 34.8214C0 35.9297 0.467993 36.9925 1.30103 37.7761C2.13406 38.5598 3.26389 39 4.44198 39H37.0165C38.1946 39 39.3244 38.5598 40.1574 37.7761C40.9905 36.9925 41.4585 35.9297 41.4585 34.8214V4.17857C41.4585 3.07035 40.9905 2.00751 40.1574 1.22388C39.3244 0.440241 38.1946 0 37.0165 0ZM35.4997 26.7577L34.1116 32.4161C34.0411 32.7038 33.869 32.9605 33.6235 33.1444C33.378 33.3283 33.0734 33.4284 32.7596 33.4286C17.953 33.4286 5.92264 22.1369 5.92264 8.18304C5.93365 7.89058 6.04416 7.60918 6.2379 7.38023C6.43164 7.15127 6.69839 6.98686 6.99889 6.91118L13.0141 5.60538C13.1167 5.58497 13.2211 5.5736 13.3259 5.57143C13.5944 5.58417 13.8543 5.66428 14.0787 5.80343C14.3031 5.94258 14.4838 6.1357 14.6021 6.36275L17.3783 12.4565C17.4463 12.6208 17.4842 12.7948 17.4903 12.971C17.4677 13.3575 17.285 13.7204 16.9813 13.9817L13.4749 16.6803C15.5995 20.9163 19.2237 24.3255 23.7266 26.3241L26.5954 23.0257C26.8732 22.74 27.2589 22.5681 27.6698 22.5469C27.8572 22.5525 28.0421 22.5882 28.2167 22.6522L34.6946 25.2638C34.9361 25.3749 35.1415 25.5449 35.2894 25.756C35.4374 25.9671 35.5225 26.2117 35.5358 26.4643C35.534 26.5629 35.5219 26.6612 35.4997 26.7577Z" fill="#71C669"/>
</svg>
